<svg xmlns="http://www.w3.org/2000/svg" width="600" height="500" viewBox="0 0 159 132">
  <path d="M27 0a27 27 0 0 0 0 54c13 0 24-9 26-21h6c8 0 14 7 14 15v36a27 27 0 0 0 27 27h5c3 12 14 21 27 21a27 27 0 0 0 0-54c-13 0-24 9-27 21h-5a15 15 0 0 1-15-15V48c0-5-1-11-4-15h24c3 12 14 21 27 21a27 27 0 0 0 0-54c-13 0-24 9-27 21H53C51 9 40 0 27 0Zm0 12c8 0 15 7 15 15s-7 15-15 15-15-7-15-15 7-15 15-15zm105 0c8 0 14 7 14 15s-6 15-14 15c-9 0-15-7-15-15s6-15 15-15zm0 78c8 0 14 7 14 15s-6 15-14 15c-9 0-15-7-15-15s6-15 15-15z" overflow="visible"/>
</svg>
